<svg aria-hidden="true" style="position: absolute; width: 0; height: 0; overflow: hidden;" version="1.1" xmlns="http://www.w3.org/2000/svg" xmlns:xlink="http://www.w3.org/1999/xlink">
<defs>
<symbol id="icon-arrow-down" viewBox="0 0 32 32">
<path fill="#fff" style="fill: var(--color1, #fff)" d="M16 32c8.837 0 16-7.163 16-16s-7.163-16-16-16c-8.837 0-16 7.163-16 16s7.163 16 16 16z"></path>
<path fill="#4dc274" style="fill: var(--color2, #4dc274)" d="M16.473 16.933c-0.121 0.122-0.288 0.197-0.473 0.197s-0.352-0.075-0.473-0.197l-0-0-3.053-3.060c-0.122-0.13-0.295-0.211-0.487-0.211-0.369 0-0.667 0.299-0.667 0.667 0 0.19 0.080 0.362 0.208 0.484l3.060 3.060c0.362 0.361 0.861 0.585 1.413 0.585s1.052-0.224 1.413-0.585l3.060-3.060c0.12-0.121 0.194-0.287 0.194-0.47 0-0.368-0.299-0.667-0.667-0.667-0.185 0-0.352 0.075-0.473 0.197l-0 0-3.053 3.060z"></path>
</symbol>
<symbol id="icon-facebook" viewBox="0 0 32 32">
<path d="M18.24 8.771h0.611v2.291h-0.764c-0.305 0-0.611 0-0.764 0.153s-0.153 0.305-0.153 0.662v0.815h1.68v1.935h-1.68v8.4h-2.596v-8.451h-1.375v-1.935h1.375v-0.662c0-1.12 0.153-1.935 0.458-2.291 0.458-0.662 1.375-0.967 2.749-0.967 0.153 0.051 0.305 0.051 0.458 0.051z"></path>
<path fill="none" stroke="#121417" style="stroke: var(--color3, #121417)" stroke-linejoin="miter" stroke-linecap="butt" stroke-miterlimit="4" stroke-width="0.7273" d="M7.273 0.364h17.455c3.816 0 6.909 3.093 6.909 6.909v17.455c0 3.816-3.093 6.909-6.909 6.909h-17.455c-3.816 0-6.909-3.093-6.909-6.909v-17.455c0-3.816 3.093-6.909 6.909-6.909z"></path>
</symbol>
<symbol id="icon-checkmark" viewBox="0 0 32 32">
<path fill="#4dc274" style="fill: var(--color2, #4dc274)" d="M32 16c0 8.837-7.163 16-16 16s-16-7.163-16-16c0-8.837 7.163-16 16-16s16 7.163 16 16z"></path>
<path fill="none" stroke="#fff" style="stroke: var(--color1, #fff)" stroke-linejoin="round" stroke-linecap="round" stroke-miterlimit="4" stroke-width="2.2857" d="M23.619 10.286l-10.477 10.477-4.762-4.762"></path>
</symbol>
<symbol id="icon-instagram" viewBox="0 0 32 32">
<path d="M24.093 12.663c-0.010-0.722-0.148-1.408-0.393-2.042l0.014 0.040c-0.434-1.096-1.286-1.946-2.354-2.368l-0.028-0.010c-0.586-0.226-1.263-0.364-1.971-0.38l-0.006-0c-0.87-0.039-1.146-0.049-3.355-0.049s-2.492 0-3.356 0.049c-0.676 0.015-1.344 0.142-1.977 0.38-1.097 0.432-1.949 1.282-2.372 2.35l-0.010 0.028c-0.227 0.585-0.365 1.261-0.379 1.967l-0 0.006c-0.039 0.87-0.051 1.145-0.051 3.351s0 2.487 0.051 3.351c0.013 0.676 0.141 1.343 0.378 1.975 0.434 1.096 1.286 1.946 2.355 2.368l0.028 0.010c0.584 0.235 1.26 0.382 1.967 0.406l0.010 0c0.871 0.039 1.147 0.051 3.356 0.051s2.492 0 3.356-0.051c0.714-0.014 1.392-0.152 2.018-0.392l-0.041 0.014c1.096-0.432 1.948-1.283 2.372-2.35l0.010-0.028c0.238-0.632 0.366-1.298 0.379-1.975 0.039-0.869 0.051-1.145 0.051-3.351-0.001-2.205-0.001-2.485-0.052-3.349zM15.993 20.156c-0.001 0-0.002 0-0.004 0-2.307 0-4.177-1.869-4.178-4.175v-0c0.001-2.306 1.871-4.175 4.177-4.175 0.002 0 0.003 0 0.005 0h-0c2.309 0 4.182 1.869 4.182 4.175-0.002 2.307-1.872 4.176-4.179 4.176-0.001 0-0.002 0-0.003 0h0zM20.342 12.625c-0.538 0-0.973-0.436-0.973-0.973s0.436-0.973 0.973-0.973v0c0.008-0 0.017-0 0.027-0 0.538 0 0.974 0.436 0.974 0.974s-0.436 0.974-0.974 0.974c-0.009 0-0.019-0-0.028-0l0.001 0z"></path>
<path d="M15.995 18.53c1.407 0 2.548-1.141 2.548-2.548s-1.141-2.548-2.548-2.548v0c-1.407 0-2.548 1.141-2.548 2.548s1.141 2.548 2.548 2.548v0z"></path>
<path fill="none" stroke="#121417" style="stroke: var(--color3, #121417)" stroke-linejoin="miter" stroke-linecap="butt" stroke-miterlimit="4" stroke-width="0.7273" d="M7.273 0.364h17.455c3.816 0 6.909 3.093 6.909 6.909v17.455c0 3.816-3.093 6.909-6.909 6.909h-17.455c-3.816 0-6.909-3.093-6.909-6.909v-17.455c0-3.816 3.093-6.909 6.909-6.909z"></path>
</symbol>
<symbol id="icon-burger" viewBox="0 0 32 32">
<path stroke-linejoin="miter" stroke-linecap="round" stroke-miterlimit="4" stroke-width="2.4" d="M6.070 8.351h24.73M6.070 21.927h24.73M13.722 15.139h17.078"></path>
</symbol>
<symbol id="icon-close" viewBox="0 0 32 32">
<path fill="none" stroke="#fff" style="stroke: var(--color1, #fff)" stroke-linejoin="round" stroke-linecap="round" stroke-miterlimit="4" stroke-width="2.4" d="M24 8l-16 16M8 8l16 16"></path>
</symbol>
<symbol id="icon-youtube" viewBox="0 0 32 32">
<path d="M21.244 9.636c-0.865-0.051-2.647-0.102-5.345-0.102h-0.356c-2.596 0-4.327 0.051-5.193 0.153-1.171 0.102-1.985 0.407-2.444 0.815-0.407 0.356-0.713 1.018-0.815 1.884-0.051 0.56-0.102 1.731-0.102 3.513v0.255c0 1.68 0.051 2.851 0.153 3.411 0.153 0.815 0.407 1.425 0.916 1.782 0.509 0.407 1.375 0.662 2.596 0.764 0.865 0.051 2.647 0.102 5.345 0.102h0.356c2.596 0 4.327-0.051 5.193-0.153 1.171-0.102 1.985-0.407 2.444-0.815 0.407-0.356 0.713-1.018 0.815-1.884 0.051-0.56 0.102-1.731 0.102-3.513v-0.255c0-1.68-0.051-2.851-0.153-3.411-0.153-0.815-0.407-1.425-0.916-1.782-0.509-0.407-1.375-0.662-2.596-0.764zM19.258 15.898l-5.6 3.36v-6.72l5.6 3.36z"></path>
<path fill="none" stroke="#121417" style="stroke: var(--color3, #121417)" stroke-linejoin="miter" stroke-linecap="butt" stroke-miterlimit="4" stroke-width="0.7273" d="M7.273 0.364h17.455c3.816 0 6.909 3.093 6.909 6.909v17.455c0 3.816-3.093 6.909-6.909 6.909h-17.455c-3.816 0-6.909-3.093-6.909-6.909v-17.455c0-3.816 3.093-6.909 6.909-6.909z"></path>
</symbol>
<symbol id="icon-radio-checked" viewBox="0 0 32 32">
<path d="M16 8c4.418 0 8 3.582 8 8s-3.582 8-8 8c-4.418 0-8-3.582-8-8s3.582-8 8-8z"></path>
<path fill="none"  stroke-linejoin="miter" stroke-linecap="butt" stroke-miterlimit="4" stroke-width="3.2" d="M16 1.6c7.953 0 14.4 6.447 14.4 14.4s-6.447 14.4-14.4 14.4c-7.953 0-14.4-6.447-14.4-14.4s6.447-14.4 14.4-14.4z"></path>
</symbol>
</defs>
</svg>
