<svg xmlns="http://www.w3.org/2000/svg" aria-hidden="true" style="position:absolute;width:0;height:0;overflow:hidden"><defs><symbol id="icon-arrow-down" viewBox="0 0 24 24"><path d="M12.7099 13.4001C12.617 13.4938 12.5064 13.5682 12.3845 13.619C12.2627 13.6698 12.132 13.6959 11.9999 13.6959C11.8679 13.6959 11.7372 13.6698 11.6154 13.619C11.4935 13.5682 11.3829 13.4938 11.2899 13.4001L6.70994 8.81011C6.61698 8.71638 6.50638 8.64199 6.38452 8.59122C6.26266 8.54045 6.13195 8.51431 5.99994 8.51431C5.86793 8.51431 5.73722 8.54045 5.61536 8.59122C5.4935 8.64199 5.3829 8.71638 5.28994 8.81011C5.10369 8.99747 4.99915 9.25092 4.99915 9.51511C4.99915 9.77929 5.10369 10.0327 5.28994 10.2201L9.87994 14.8101C10.4424 15.3719 11.2049 15.6875 11.9999 15.6875C12.795 15.6875 13.5574 15.3719 14.12 14.8101L18.71 10.2201C18.8947 10.0338 18.9989 9.78245 19 9.52011C19.0007 9.3885 18.9755 9.25804 18.9257 9.13620.8760 9.01436 18.8026 8.90355 18.71 8.81011C18.6170 8.71638 18.5064 8.64199 18.3845 8.59122C18.2627 8.54045 18.1320 8.51431 18.000 8.51431C17.8679 8.51431 17.7372 8.54045 17.6154 8.59122C17.4935 8.64199 17.3829 8.71638 17.29 8.81011L12.7099 13.4001Z"/></symbol><symbol id="icon-facebook" viewBox="0 0 32 32"><path d="M19.52 4.64h.96v3.6h-1.2c-.48 0-.96 0-1.2.24s-.24.48-.24 1.04v1.28h2.64v3.04h-2.64v13.2h-4.08V13.76H11.6v-3.04h2.16V9.68c0-1.76.24-3.04.72-3.6.72-1.04 2.16-1.52 4.32-1.52.24.08.48.08.72.08z"/></symbol><symbol id="icon-checkmark" viewBox="0 0 32 32"><path fill="#4dc274" d="M32 16c0 8.837-7.163 16-16 16S0 24.837 0 16 7.163 0 16 0s16 7.163 16 16z" style="fill:var(--color2, #4dc274)"/><path fill="none" stroke="#fff" stroke-linecap="round" stroke-linejoin="round" stroke-width="2.286" d="M23.619 10.286 13.142 20.763 8.38 16.001" style="stroke:var(--color1, #fff)"/></symbol><symbol id="icon-instagram" viewBox="0 0 32 32"><path d="M28.718 10.756a9.264 9.264 0 0 0-.596-3.145 6.547 6.547 0 0 0-3.743-3.737 9.42 9.42 0 0 0-3.108-.596c-1.368-.061-1.801-.078-5.273-.078s-3.916 0-5.274.078a9.413 9.413 0 0 0-3.106.596 6.541 6.541 0 0 0-3.743 3.737 9.288 9.288 0 0 0-.596 3.101c-.061 1.367-.08 1.8-.08 5.265s0 3.909.08 5.265a9.335 9.335 0 0 0 .596 3.104 6.548 6.548 0 0 0 3.744 3.735 9.37 9.37 0 0 0 3.106.639c1.369.061 1.803.079 5.274.079s3.916 0 5.274-.079a9.362 9.362 0 0 0 3.108-.595 6.555 6.555 0 0 0 3.743-3.737 9.35 9.35 0 0 0 .596-3.104c.061-1.365.08-1.798.08-5.265-.003-3.466-.003-3.906-.082-5.264zM15.99 22.531c-3.631 0-6.572-2.936-6.572-6.561s2.941-6.561 6.572-6.561c3.628 0 6.572 2.936 6.572 6.561s-2.944 6.561-6.572 6.561zm6.834-11.835a1.53 1.53 0 1 1 0-3.06 1.53 1.53 0 1 1 0 3.06z"/><path d="M15.992 19.976a4.004 4.004 0 1 0 0-8.009 4.004 4.004 0 0 0 0 8.009z"/></symbol><symbol id="icon-burger" viewBox="0 0 32 32"><path stroke-linecap="round" stroke-width="2.4" d="M6.07 8.351H30.8M6.07 21.927H30.8m-17.078-6.788H30.8"/></symbol><symbol id="icon-close" viewBox="0 0 32 32"><path fill="none" stroke="#fff" stroke-linecap="round" stroke-linejoin="round" stroke-width="2.4" d="M24 8 8 24M8 8l16 16" style="stroke:var(--color1, #fff)"/></symbol><symbol id="icon-youtube" viewBox="0 0 32 32"><path d="M24.24 6c-1.36-.08-4.16-.16-8.4-.16h-.56c-4.08 0-6.8.08-8.16.24-1.84.16-3.12.64-3.84 1.28-.64.56-1.12 1.6-1.28 2.96-.08.88-.16 2.72-.16 5.52v.4c0 2.64.08 4.48.24 5.36.24 1.28.64 2.24 1.44 2.8.8.64 2.16 1.04 4.08 1.2 1.36.08 4.16.16 8.4.16h.56c4.08 0 6.8-.08 8.16-.24 1.84-.16 3.12-.64 3.84-1.28.64-.56 1.12-1.6 1.28-2.96.08-.88.16-2.72.16-5.52v-.4c0-2.64-.08-4.48-.24-5.36-.24-1.28-.64-2.24-1.44-2.8-.8-.64-2.16-1.04-4.08-1.2zm-3.12 9.84-8.8 5.28V10.56l8.8 5.28z"/></symbol><symbol id="icon-radio-checked" viewBox="0 0 32 32"><path d="M16 8a8 8 0 1 1 0 16 8 8 0 0 1 0-16z"/><path fill="none" stroke-width="3.2" d="M16 1.6c7.953 0 14.4 6.447 14.4 14.4S23.953 30.4 16 30.4 1.6 23.953 1.6 16 8.047 1.6 16 1.6z"/></symbol></defs></svg>